<svg width="70" height="70" viewBox="0 0 70 70" fill="none" xmlns="http://www.w3.org/2000/svg">
<rect width="70" height="70" rx="15" fill="white"/>
<path d="M30.9185 28.3964C30.0771 28.3964 29.3926 29.081 29.3926 29.9223C29.3926 30.7637 30.0771 31.4483 30.9185 31.4483C31.7599 31.4483 32.4444 30.7636 32.4444 29.9223C32.4444 29.081 31.7599 28.3964 30.9185 28.3964Z" fill="#FB7A32"/>
<path d="M40.0799 37.5519C39.2385 37.5519 38.554 38.2364 38.554 39.0778C38.554 39.9192 39.2385 40.6037 40.0799 40.6037C40.9212 40.6037 41.6058 39.9192 41.6058 39.0778C41.6058 38.2364 40.9212 37.5519 40.0799 37.5519Z" fill="#FB7A32"/>
<path d="M52.6687 33.6947L49.6987 30.6954L50.7711 26.6129C50.9306 26.0058 50.5713 25.3836 49.9659 25.2182L45.8941 24.1058L44.7817 20.034C44.6163 19.4286 43.9942 19.0692 43.387 19.2288L39.3046 20.3013L36.3052 17.3313C35.8592 16.8896 35.1407 16.8896 34.6947 17.3313L31.6954 20.3013L27.6129 19.2288C27.0057 19.0693 26.3836 19.4287 26.2182 20.0341L25.1058 24.1059L21.034 25.2183C20.4286 25.3837 20.0693 26.006 20.2288 26.613L21.3013 30.6955L18.3313 33.6947C17.8896 34.1407 17.8896 34.8593 18.3313 35.3052L21.3013 38.3045L20.2288 42.387C20.0694 42.9941 20.4287 43.6164 21.0341 43.7817L25.1059 44.8941L26.2183 48.9659C26.3837 49.5713 27.0057 49.9307 27.613 49.7711L31.6955 48.6987L34.6948 51.6687C34.9177 51.8896 35.2089 52 35.5 52C35.7912 52 36.0823 51.8896 36.3053 51.6687L39.3046 48.6987L43.387 49.7711C43.9942 49.9305 44.6164 49.5713 44.7818 48.9659L45.8942 44.8941L49.9659 43.7817C50.5714 43.6163 50.9307 42.994 50.7712 42.387L49.6987 38.3045L52.6687 35.3052C53.1103 34.8593 53.1103 34.1407 52.6687 33.6947ZM27.1075 29.9222C27.1075 27.8187 28.8188 26.1074 30.9223 26.1074C33.0258 26.1074 34.7371 27.8187 34.7371 29.9222C34.7371 32.0257 33.0258 33.737 30.9223 33.737C28.8188 33.737 27.1075 32.0257 27.1075 29.9222ZM30.9685 40.6498C30.745 40.8733 30.4521 40.9851 30.1593 40.9851C29.8665 40.9851 29.5736 40.8734 29.3502 40.6498C28.9032 40.2029 28.9032 39.4783 29.3502 39.0314L40.0315 28.35C40.4784 27.9031 41.203 27.9031 41.65 28.35C42.0969 28.7969 42.0969 29.5216 41.65 29.9685L30.9685 40.6498ZM40.0778 42.8925C37.9743 42.8925 36.263 41.1812 36.263 39.0777C36.263 36.9742 37.9743 35.2629 40.0778 35.2629C42.1813 35.2629 43.8926 36.9742 43.8926 39.0777C43.8926 41.1812 42.1813 42.8925 40.0778 42.8925Z" fill="#FB7A32"/>
</svg>
