<svg width="70" height="70" viewBox="0 0 70 70" fill="none" xmlns="http://www.w3.org/2000/svg">
<rect width="70" height="70" rx="15" fill="white"/>
<path d="M25.5385 26.5408C25.9226 24.5935 26.4422 22.7913 27.0875 21.2086C27.4141 20.4056 27.7688 19.6751 28.1482 19.014C23.4526 20.7224 19.7207 24.4538 18.0122 29.1503C18.6727 28.7701 19.4041 28.4172 20.2069 28.0902C21.7898 27.4443 23.5908 26.9255 25.5385 26.5408Z" fill="#FB7A32"/>
<path d="M36.0745 19.3835C35.3443 18.4776 34.5965 18 33.9209 18C32.6379 18 31.093 19.7267 29.9 22.841C31.4143 21.7484 33.0186 20.7782 34.7097 19.9829C35.1525 19.7752 35.6094 19.5744 36.0745 19.3835Z" fill="#FB7A32"/>
<path d="M42.299 43.3004C41.9144 45.2485 41.3954 47.0487 40.7496 48.6314C40.4225 49.4343 40.0683 50.1668 39.6892 50.8257C44.3845 49.1172 48.1162 45.3857 49.8249 40.6903C49.1646 41.0694 48.433 41.4251 47.6304 41.7515C46.0476 42.3964 44.2463 42.9168 42.299 43.3004Z" fill="#FB7A32"/>
<path d="M18.7094 36.3178C19.547 34.4132 20.6027 32.6028 21.8231 30.9063C18.7209 32.0983 17.0021 33.6387 17 34.9192C17 34.9198 17 34.9206 17 34.9212C17 34.9218 17 34.9226 17 34.9232C17.0012 35.5994 17.4802 36.3478 18.3885 37.0774C18.4927 36.8213 18.5997 36.5681 18.7094 36.3178Z" fill="#FB7A32"/>
<path d="M51.8209 24.7382C51.275 21.9712 49.227 19.9709 46.5063 19.2919C42.9242 18.3984 39.0218 19.5218 35.7744 21.0495C33.1547 22.2839 30.7386 23.9296 28.5502 25.819C24.8802 28.9901 21.7349 32.9315 19.775 37.3841C18.3364 40.6518 17.3052 44.6347 18.4726 48.1436C18.9372 49.5364 19.7771 50.7808 20.9715 51.6444C22.4396 52.7049 24.2737 53.0728 26.0592 52.9883C28.3143 52.882 30.4887 52.2003 32.5364 51.2476C33.0118 51.638 33.4815 51.8399 33.9193 51.8399C35.5894 51.8399 37.7027 48.9227 38.906 43.8153C37.296 43.9898 35.6238 44.0833 33.9193 44.0833C32.2145 44.0833 30.5427 43.9898 28.9328 43.8153C29.7399 47.2408 30.957 49.681 32.1743 50.9162C30.9871 51.3458 29.7608 51.6688 28.4965 51.8596C25.5383 52.3023 21.8941 51.7187 20.6214 48.6311C20.1275 47.4353 20.0574 46.1123 20.2084 44.8229C22.121 47.4625 24.7773 49.5318 27.8673 50.7189C27.9343 50.7072 28.001 50.6952 28.0671 50.6827C27.7191 50.0602 27.3915 49.3763 27.0885 48.6315C26.4432 47.0487 25.9236 45.2485 25.5394 43.3004C23.8509 42.9681 22.2732 42.5333 20.8523 42.0031C21.182 40.9826 21.5991 39.9907 22.077 39.0294C22.9561 39.3541 23.9405 39.6524 25.0249 39.9067C24.8504 38.2965 24.7571 36.6259 24.7571 34.9212C24.7571 34.8261 24.7586 34.7323 24.7591 34.6393C25.8042 33.1983 26.9574 31.8392 28.1924 30.5565C28.0563 31.9178 27.98 33.3753 27.98 34.9212C27.98 36.9391 28.1088 38.8062 28.333 40.5073C30.0339 40.7317 31.9011 40.859 33.9192 40.859C35.9373 40.859 37.8044 40.7316 39.5057 40.5073C39.7294 38.8062 39.8583 36.9391 39.8583 34.9212C39.8583 32.903 39.7294 31.0361 39.5057 29.3347C37.8044 29.1106 35.9373 28.9805 33.9192 28.9805C32.3763 28.9805 30.9232 29.0578 29.5624 29.192C30.2693 28.5206 30.9951 27.8674 31.7388 27.2391C32.3447 26.726 32.9729 26.2332 33.6206 25.7613C33.7199 25.7607 33.819 25.7592 33.9192 25.7592C35.6237 25.7592 37.296 25.8519 38.9059 26.027C38.6515 24.9458 38.3544 23.9633 38.0307 23.087C38.4164 22.8966 38.8052 22.7175 39.1966 22.5488C39.7861 22.2944 40.39 22.0612 41.0043 21.8628C41.5332 23.2804 41.9667 24.8564 42.2994 26.541C44.2468 26.9256 46.048 27.4445 47.6309 28.0904C48.374 28.3916 49.0551 28.7182 49.6768 29.0668C49.6893 28.998 49.7014 28.9267 49.7143 28.8578C48.5297 25.7834 46.4744 23.1415 43.8504 21.2323C44.1014 21.2036 44.3543 21.1849 44.6072 21.1752C46.2489 21.1095 47.7445 21.4926 49.04 22.5168C49.0368 22.5109 49.0316 22.5056 49.0257 22.5012C49.3109 22.8086 49.5987 23.0898 49.8425 23.4339C50.3886 24.2108 50.691 25.124 50.8518 26.0512C51.1665 27.8714 50.9004 29.7696 50.4159 31.5349C50.2662 32.0841 50.0893 32.6237 49.8945 33.1566C48.6519 31.9448 46.2208 30.7362 42.8135 29.9338C42.9885 31.5436 43.0814 33.2169 43.0814 34.9215C43.0814 36.6261 42.9885 38.2968 42.8135 39.907C47.9188 38.7056 50.8366 36.5922 50.8395 34.9235C50.8395 34.9229 50.8395 34.9221 50.8395 34.9216C50.8395 34.9209 50.8395 34.9201 50.8395 34.9196C50.8386 34.4806 50.6351 34.0112 50.2444 33.5357C51.5036 30.8174 52.4074 27.7048 51.8209 24.7382Z" fill="#FB7A32"/>
</svg>
