<svg width="70" height="70" viewBox="0 0 70 70" fill="none" xmlns="http://www.w3.org/2000/svg">
<rect width="70" height="70" rx="15" fill="white"/>
<path d="M24.4353 22.7277V41.1444C25.2044 40.8621 26.0356 40.7083 26.9024 40.7083C27.6119 40.7083 28.2982 40.8114 28.9454 41.0042V21.8164C28.9454 19.709 27.2421 18 25.1406 18H21.2545C20.0096 18 19 19.0123 19 20.262C19 20.886 19.2523 21.4521 19.6604 21.8615C20.0684 22.2711 20.6323 22.524 21.2545 22.524H24.2316C24.3443 22.524 24.4353 22.615 24.4353 22.7277Z" fill="#FB7A32"/>
<path d="M51.0096 46.6947C50.6016 46.2851 50.0376 46.0322 49.4154 46.0322H33.8269C33.9842 46.6216 34.0675 47.2408 34.0675 47.8801C34.0675 48.8261 33.8843 49.729 33.5508 50.5562H49.4154C50.6603 50.5562 51.6699 49.5431 51.6699 48.2942C51.6699 47.6694 51.4176 47.1041 51.0096 46.6947Z" fill="#FB7A32"/>
<path d="M26.8977 42.7596C24.0785 42.7596 21.793 45.0521 21.793 47.8799C21.793 50.7077 24.0785 53.0002 26.8977 53.0002C29.717 53.0002 32.0025 50.7077 32.0025 47.8799C32.0025 45.0521 29.717 42.7596 26.8977 42.7596ZM27.9869 48.4981C27.9869 49.0997 27.4994 49.5873 26.8977 49.5873C26.2961 49.5873 25.8085 49.0997 25.8085 48.4981V47.2617C25.8085 46.6601 26.2961 46.1723 26.8977 46.1723C27.4994 46.1723 27.9869 46.6601 27.9869 47.2617V48.4981Z" fill="#FB7A32"/>
<path d="M49.0359 28.1008C49.0359 26.8805 48.0433 25.8879 46.8233 25.8879H31V41.9344C31.7885 42.4781 32.4633 43.1748 32.9819 43.9812H49.0359V28.1008ZM45.0168 32.906L39.0231 38.8997C38.7766 39.1464 38.453 39.2695 38.1291 39.2695C37.8055 39.2695 37.4816 39.1464 37.2351 38.8997L35.0193 36.6839C34.5939 36.2585 34.5939 35.569 35.0193 35.1437C35.4447 34.7183 36.1344 34.7183 36.5598 35.1437L38.1291 36.713L43.4763 31.3657C43.9017 30.9404 44.5914 30.9404 45.0166 31.3657C45.4422 31.7911 45.4422 32.4809 45.0168 32.906Z" fill="#FB7A32"/>
</svg>
