<svg width="70" height="70" viewBox="0 0 70 70" fill="none" xmlns="http://www.w3.org/2000/svg">
<rect width="70" height="70" rx="15" fill="white"/>
<path d="M52.6986 19.7506L51.2486 18.3005C50.9463 17.9981 50.4881 17.9153 50.0994 18.0916L42.3109 21.5299C42.0043 21.6693 41.7861 21.9498 41.7261 22.2804C41.6664 22.6119 41.772 22.9509 42.0099 23.1889L47.8103 28.9893C48.0483 29.2272 48.3873 29.3327 48.7188 29.2732C49.0494 29.2131 49.3299 28.9949 49.4693 28.6883L52.9075 20.8998C53.0839 20.511 53.001 20.0529 52.6986 19.7506Z" fill="#FB7A32"/>
<path d="M24.624 40.5757L18.8996 46.3001C17.7001 47.4996 17.7001 49.4509 18.8996 50.6503L20.3497 52.1004C21.5492 53.2999 23.5005 53.2999 24.6999 52.1004L30.4243 46.376L24.624 40.5757ZM23.9849 48.4795C23.5842 48.8803 22.9355 48.8803 22.5348 48.4795C22.1341 48.0787 22.1341 47.4301 22.5348 47.0295L25.359 44.2052C25.7598 43.8044 26.4084 43.8044 26.8091 44.2052C27.2099 44.606 27.2099 45.2545 26.8091 45.6553L23.9849 48.4795Z" fill="#FB7A32"/>
<path d="M34.778 42.0258L28.9776 36.2255C28.1782 35.426 26.8769 35.426 26.0775 36.2255C25.278 37.0249 25.278 38.3262 26.0775 39.1256L31.8779 44.9259C32.6772 45.7254 33.9785 45.7254 34.778 44.9259C35.5775 44.1267 35.5775 42.8253 34.778 42.0258Z" fill="#FB7A32"/>
<path d="M44.9082 28.9891L42.0079 26.0889L34.0466 34.0502C33.2458 33.2494 31.9474 33.2494 31.1465 34.0502L30.4214 34.7753L36.2217 40.5756L36.9468 39.8505C37.7477 39.0496 37.7477 37.7513 36.9468 36.9504L44.9082 28.9891Z" fill="#FB7A32"/>
<path d="M51.2007 42.4971C49.5361 40.8325 47.5345 40.4746 45.2378 40.885L40.5761 36.2238L39.4628 37.337C39.8294 38.7145 39.473 40.2267 38.3994 41.3004L37.6758 42.024L40.884 45.2319C40.5605 47.042 40.5908 48.5773 41.7151 50.2425C43.0124 52.1649 45.2829 53.2575 47.6617 52.9301C48.055 52.876 48.3834 52.6032 48.5098 52.227C48.6362 51.8507 48.5388 51.4353 48.2581 51.1546L46.848 49.7469V46.8471H49.7508L51.1532 48.2494C51.4344 48.5307 51.851 48.6275 52.2275 48.5001C52.6042 48.3726 52.876 48.0427 52.9289 47.6485C53.1793 45.7834 52.5692 43.8649 51.2007 42.4971Z" fill="#FB7A32"/>
<path d="M30.1032 25.7454C30.5101 23.4726 30.1806 21.4733 28.4911 19.7825C27.3415 18.6329 25.8034 18.0001 24.1602 18.0001C23.8835 18.0001 23.6098 18.0181 23.3397 18.0539C22.9452 18.1062 22.6149 18.3784 22.4874 18.7554C22.3598 19.1323 22.4572 19.549 22.7386 19.8304L24.1547 21.2324V24.1523H21.2403L19.8347 22.727C19.554 22.4463 19.1382 22.3491 18.7618 22.4758C18.3855 22.6025 18.1134 22.9313 18.0593 23.3247C17.7469 25.5995 18.7326 27.9105 20.7436 29.2681C22.4152 30.3943 23.9597 30.4222 25.7563 30.0983L28.9775 33.3247L29.7013 32.6009C30.775 31.5272 32.2871 31.171 33.6646 31.5374L34.7773 30.4246L30.1032 25.7454Z" fill="#FB7A32"/>
</svg>
