<svg width="50" height="50" viewBox="0 0 50 50" fill="none" xmlns="http://www.w3.org/2000/svg">
<g id="&#208;&#186;&#208;&#190;&#209;&#128;&#208;&#183;&#208;&#184;&#208;&#189;&#208;&#176;">
<circle id="Ellipse 2" cx="25" cy="25" r="24" stroke="#FB7A32" stroke-width="2"/>
<path id="Icon" d="M13.0938 13.2856C12.5415 13.2856 12.0938 13.7334 12.0938 14.2856C12.0938 14.8379 12.5415 15.2856 13.0938 15.2856V13.2856ZM15.6524 14.2856L16.6183 14.0267C16.5011 13.5896 16.1049 13.2856 15.6524 13.2856V14.2856ZM19.8102 29.7931L18.8443 30.0521C18.9737 30.5348 19.4396 30.8479 19.9354 30.7852L19.8102 29.7931ZM32.6033 28.1778L32.7286 29.1699C33.1535 29.1162 33.4971 28.798 33.583 28.3784L32.6033 28.1778ZM34.5223 18.8087L35.502 19.0093C35.5623 18.715 35.487 18.4092 35.2971 18.1765C35.1072 17.9437 34.8227 17.8087 34.5223 17.8087V18.8087ZM16.8651 18.8087L15.8992 19.0676L16.8651 18.8087ZM13.0938 15.2856H15.6524V13.2856H13.0938V15.2856ZM19.9354 30.7852L32.7286 29.1699L32.4781 27.1856L19.6849 28.801L19.9354 30.7852ZM33.583 28.3784L35.502 19.0093L33.5427 18.608L31.6237 27.9771L33.583 28.3784ZM14.6865 14.5446L15.8992 19.0676L17.831 18.5497L16.6183 14.0267L14.6865 14.5446ZM15.8992 19.0676L18.8443 30.0521L20.7761 29.5342L17.831 18.5497L15.8992 19.0676ZM34.5223 17.8087H16.8651V19.8087H34.5223V17.8087ZM22.808 34.0231C22.808 34.4143 22.4967 34.7142 22.1339 34.7142V36.7142C23.6203 36.7142 24.808 35.4998 24.808 34.0231H22.808ZM22.1339 34.7142C21.7711 34.7142 21.4598 34.4143 21.4598 34.0231H19.4598C19.4598 35.4998 20.6476 36.7142 22.1339 36.7142V34.7142ZM21.4598 34.0231C21.4598 33.6319 21.7711 33.3321 22.1339 33.3321V31.3321C20.6476 31.3321 19.4598 32.5464 19.4598 34.0231H21.4598ZM22.1339 33.3321C22.4967 33.3321 22.808 33.6319 22.808 34.0231H24.808C24.808 32.5464 23.6203 31.3321 22.1339 31.3321V33.3321ZM31.7366 34.0231C31.7366 34.4143 31.4253 34.7142 31.0625 34.7142V36.7142C32.5489 36.7142 33.7366 35.4998 33.7366 34.0231H31.7366ZM31.0625 34.7142C30.6997 34.7142 30.3884 34.4143 30.3884 34.0231H28.3884C28.3884 35.4998 29.5762 36.7142 31.0625 36.7142V34.7142ZM30.3884 34.0231C30.3884 33.6319 30.6997 33.3321 31.0625 33.3321V31.3321C29.5762 31.3321 28.3884 32.5464 28.3884 34.0231H30.3884ZM31.0625 33.3321C31.4253 33.3321 31.7366 33.6319 31.7366 34.0231H33.7366C33.7366 32.5464 32.5489 31.3321 31.0625 31.3321V33.3321Z" fill="#FB7A32"/>
</g>
</svg>
