<svg width="32" height="32" viewBox="0 0 32 32" fill="none" xmlns="http://www.w3.org/2000/svg">
<path d="M1 0C0.447715 0 0 0.447715 0 1C0 1.55228 0.447715 2 1 2V0ZM4.58209 1L5.54798 0.741032C5.43078 0.303922 5.03464 0 4.58209 0V1ZM10.403 22.7105L9.4371 22.9694C9.56652 23.4521 10.0324 23.7652 10.5283 23.7026L10.403 22.7105ZM28.3134 20.449L28.4387 21.4411C28.8636 21.3874 29.2072 21.0692 29.2931 20.6496L28.3134 20.449ZM31 7.33222L31.9797 7.53288C32.0399 7.23858 31.9647 6.93278 31.7748 6.70002C31.5849 6.46727 31.3004 6.33222 31 6.33222V7.33222ZM6.27985 7.33222L5.31396 7.59119L6.27985 7.33222ZM1 2H4.58209V0H1V2ZM10.5283 23.7026L28.4387 21.4411L28.1882 19.4568L10.2777 21.7183L10.5283 23.7026ZM29.2931 20.6496L31.9797 7.53288L30.0203 7.13157L27.3338 20.2483L29.2931 20.6496ZM3.6162 1.25897L5.31396 7.59119L7.24574 7.07325L5.54798 0.741032L3.6162 1.25897ZM5.31396 7.59119L9.4371 22.9694L11.3689 22.4515L7.24574 7.07325L5.31396 7.59119ZM31 6.33222H6.27985V8.33222H31V6.33222ZM15 28.6325C15 29.3973 14.3889 30 13.6563 30V32C15.5124 32 17 30.4828 17 28.6325H15ZM13.6563 30C12.9236 30 12.3125 29.3973 12.3125 28.6325H10.3125C10.3125 30.4828 11.8001 32 13.6563 32V30ZM12.3125 28.6325C12.3125 27.8677 12.9236 27.265 13.6563 27.265V25.265C11.8001 25.265 10.3125 26.7822 10.3125 28.6325H12.3125ZM13.6563 27.265C14.3889 27.265 15 27.8677 15 28.6325H17C17 26.7822 15.5124 25.265 13.6563 25.265V27.265ZM27.5 28.6325C27.5 29.3973 26.8889 30 26.1563 30V32C28.0124 32 29.5 30.4828 29.5 28.6325H27.5ZM26.1563 30C25.4236 30 24.8125 29.3973 24.8125 28.6325H22.8125C22.8125 30.4828 24.3001 32 26.1563 32V30ZM24.8125 28.6325C24.8125 27.8677 25.4236 27.265 26.1563 27.265V25.265C24.3001 25.265 22.8125 26.7822 22.8125 28.6325H24.8125ZM26.1563 27.265C26.8889 27.265 27.5 27.8677 27.5 28.6325H29.5C29.5 26.7822 28.0124 25.265 26.1563 25.265V27.265Z" fill="white"/>
</svg>
