<svg width="60" height="60" viewBox="0 0 60 60" fill="none" xmlns="http://www.w3.org/2000/svg">
<g id="Group 120">
<rect id="Rectangle 436" width="60" height="60" rx="10" fill="white"/>
<g id="Group 110">
<path id="Vector" d="M42.065 19.4961C41.968 19.3846 41.8287 19.3185 41.681 19.3137C41.5338 19.3004 41.3904 19.3654 41.2853 19.4694L39.0176 21.7377C38.8218 21.9334 38.8085 22.246 38.9861 22.4582C40.7584 24.5665 41.7338 27.2454 41.7338 30.0006C41.7338 32.7557 40.7578 35.4341 38.9861 37.5429C38.8085 37.7546 38.8218 38.0672 39.0176 38.2635L41.2853 40.5317C41.3856 40.632 41.521 40.688 41.6629 40.688C41.6687 40.688 41.6751 40.688 41.681 40.6874C41.8287 40.6827 41.968 40.6165 42.065 40.505C44.6032 37.5919 46.001 33.8618 46.001 30.001C46.001 26.1402 44.6037 22.4092 42.065 19.4961Z" fill="#FB7A32"/>
<path id="Vector_2" d="M21.015 37.5425C19.2427 35.4342 18.2673 32.7553 18.2673 30.0002C18.2673 27.245 19.2434 24.5666 21.015 22.4578C21.1926 22.2461 21.1793 21.9335 20.9835 21.7372L18.7157 19.4689C18.6112 19.3649 18.4666 19.304 18.32 19.3132C18.1723 19.3179 18.033 19.3841 17.936 19.4956C15.3979 22.4086 14 26.1388 14 29.9996C14 33.8604 15.3979 37.5906 17.936 40.5036C18.033 40.6151 18.1723 40.6813 18.32 40.6861C18.3258 40.6866 18.3322 40.6866 18.3381 40.6866C18.4794 40.6866 18.6149 40.6307 18.7157 40.5303L20.9835 38.262C21.1792 38.0668 21.193 37.7542 21.015 37.5425Z" fill="#FB7A32"/>
<path id="Vector_3" d="M21.7377 20.9835C21.9334 21.1788 22.2465 21.1932 22.4582 21.015C24.567 19.2432 27.2454 18.2673 30.0006 18.2673C32.7557 18.2673 35.4341 19.2434 37.5429 21.015C37.6427 21.0987 37.7648 21.1398 37.8858 21.1398C38.0229 21.1398 38.1595 21.087 38.2635 20.9835L40.5312 18.7153C40.6352 18.6108 40.6922 18.4673 40.6869 18.3201C40.6816 18.1724 40.6154 18.0332 40.5039 17.9361C37.5921 15.3979 33.8619 14 30.0012 14C26.1406 14 22.4103 15.3979 19.4978 17.936C19.3863 18.033 19.3201 18.1717 19.3148 18.32C19.3095 18.4672 19.3665 18.6106 19.4705 18.7152L21.7377 20.9835Z" fill="#FB7A32"/>
<path id="Vector_4" d="M38.2622 39.0165C38.0664 38.8208 37.7533 38.8064 37.5417 38.9851C35.4328 40.7569 32.7545 41.7328 29.9993 41.7328C27.2441 41.7328 24.5657 40.7567 22.4569 38.9851C22.2452 38.8065 21.9321 38.8208 21.7364 39.0165L19.4686 41.2848C19.3646 41.3893 19.3075 41.5328 19.3128 41.68C19.3181 41.8277 19.3843 41.9669 19.4958 42.064C22.4078 44.6022 26.1385 46 29.9987 46C33.859 46 37.5897 44.602 40.5022 42.064C40.6137 41.9669 40.6799 41.8282 40.6852 41.68C40.6905 41.5328 40.6335 41.3893 40.5295 41.2848L38.2622 39.0165Z" fill="#FB7A32"/>
<path id="Vector_5" d="M30.4532 21.1836C30.3556 21.029 30.1854 20.935 30.0025 20.9345C29.8179 20.9392 29.6473 21.0279 29.5492 21.1831C29.4729 21.3035 27.6264 24.1334 23.0675 24.1334C22.9257 24.1334 22.7897 24.1894 22.6899 24.2903C22.5896 24.3906 22.5342 24.527 22.5342 24.669L22.5539 29.9031C22.5539 32.5809 23.4318 35.1036 25.0254 37.0044C26.4687 38.7266 28.1427 39.5996 30.0009 39.5996C31.859 39.5996 33.5332 38.726 34.9763 37.0044C36.5699 35.1036 37.4478 32.5809 37.4478 29.9046L37.4675 24.6683C37.4681 24.5264 37.4121 24.3904 37.3118 24.2896C37.2115 24.1892 37.0755 24.1328 36.9342 24.1328C32.3829 24.1334 30.5348 21.3121 30.4532 21.1836ZM33.6516 28.1531C33.5962 28.2401 33.5412 28.327 33.4858 28.4134C32.4735 30.0038 31.4618 31.5943 30.4495 33.1847C30.3146 33.3969 30.1797 33.6093 30.0441 33.821C29.9204 34.0156 29.8041 34.2108 29.5556 34.2545C29.1615 34.3233 28.9496 33.9308 28.7497 33.6641C28.506 33.3393 28.2622 33.0145 28.0191 32.6902C27.8377 32.4481 27.6559 32.206 27.474 31.9633C27.4628 31.9489 27.4521 31.934 27.4409 31.9196C27.2638 31.6844 27.3118 31.35 27.5476 31.1735C27.7834 30.9975 28.1177 31.0444 28.2943 31.2802L29.4314 32.7964L32.7508 27.5799C32.9088 27.3318 33.2383 27.2587 33.4873 27.4161C33.7364 27.5751 33.8095 27.9047 33.6516 28.1531Z" fill="#FB7A32"/>
</g>
</g>
</svg>
