<svg width="60" height="60" viewBox="0 0 60 60" fill="none" xmlns="http://www.w3.org/2000/svg">
<g id="Group 119">
<rect id="Rectangle 436" width="60" height="60" rx="10" fill="white"/>
<g id="Group 109">
<path id="Vector" d="M20.945 19.481V35.2667C21.6042 35.0248 22.3167 34.8929 23.0596 34.8929C23.6678 34.8929 24.256 34.9813 24.8108 35.1465V18.6998C24.8108 16.8935 23.3508 15.4287 21.5495 15.4287H18.2186C17.1515 15.4287 16.2861 16.2964 16.2861 17.3675C16.2861 17.9024 16.5024 18.3877 16.8522 18.7385C17.2019 19.0896 17.6853 19.3064 18.2186 19.3064H20.7704C20.867 19.3064 20.945 19.3844 20.945 19.481Z" fill="#FB7A32"/>
<path id="Vector_2" d="M43.7225 40.0242C43.3728 39.673 42.8894 39.4563 42.3561 39.4563H28.9945C29.1293 39.9614 29.2007 40.4922 29.2007 41.0402C29.2007 41.8511 29.0437 42.6249 28.7578 43.334H42.3561C43.4231 43.334 44.2885 42.4656 44.2885 41.3951C44.2885 40.8596 44.0722 40.375 43.7225 40.0242Z" fill="#FB7A32"/>
<path id="Vector_3" d="M23.0552 36.6513C20.6387 36.6513 18.6797 38.6163 18.6797 41.0401C18.6797 43.464 20.6387 45.4289 23.0552 45.4289C25.4717 45.4289 27.4307 43.464 27.4307 41.0401C27.4307 38.6163 25.4717 36.6513 23.0552 36.6513ZM23.9888 41.57C23.9888 42.0857 23.5709 42.5036 23.0552 42.5036C22.5395 42.5036 22.1216 42.0857 22.1216 41.57V40.5103C22.1216 39.9946 22.5395 39.5764 23.0552 39.5764C23.5709 39.5764 23.9888 39.9946 23.9888 40.5103V41.57Z" fill="#FB7A32"/>
<path id="Vector_4" d="M42.0316 24.0865C42.0316 23.0405 41.1808 22.1898 40.1351 22.1898H26.5723V35.9439C27.2482 36.4099 27.8265 37.0071 28.271 37.6983H42.0316V24.0865ZM38.5867 28.2052L33.4492 33.3427C33.238 33.5542 32.9606 33.6597 32.6829 33.6597C32.4055 33.6597 32.1279 33.5542 31.9166 33.3427L30.0174 31.4434C29.6528 31.0788 29.6528 30.4878 30.0174 30.1232C30.382 29.7586 30.9732 29.7586 31.3378 30.1232L32.6829 31.4684L37.2663 26.885C37.6309 26.5204 38.2221 26.5204 38.5865 26.885C38.9513 27.2496 38.9513 27.8408 38.5867 28.2052Z" fill="#FB7A32"/>
</g>
</g>
</svg>
