<svg width="60" height="60" viewBox="0 0 60 60" fill="none" xmlns="http://www.w3.org/2000/svg">
<g id="Group 121">
<rect id="Rectangle 436" width="60" height="60" rx="10" fill="white"/>
<g id="Group">
<path id="Vector" d="M26.2614 33.0525C25.6473 32.6409 24.8307 32.7781 24.4257 33.3922L24.0141 33.9605V26.853C24.0141 26.1017 23.4001 25.4877 22.6488 25.4877C21.8975 25.4877 21.2835 26.1017 21.2835 26.853V33.954L20.8719 33.3856C20.4604 32.7716 19.6438 32.6344 19.0362 33.0459C18.4287 33.4575 18.285 34.2741 18.6965 34.8816L21.6101 38.9645C22.7011 40.0359 23.7724 39.0364 23.8508 38.7424L26.5945 34.8816C27.0061 34.3459 26.8689 33.4575 26.2614 33.0525Z" fill="#FB7A32"/>
<path id="Vector_2" d="M38.72 33.9605V26.853C38.72 26.1017 38.1059 25.4877 37.3547 25.4877C36.6034 25.4877 35.9894 26.1017 35.9894 26.853V33.954L35.5778 33.3856C35.1662 32.7716 34.3497 32.6344 33.7421 33.0459C33.1281 33.4575 32.9909 34.2741 33.4024 34.8816L36.2637 38.8992C36.2768 38.9123 36.316 38.9645 36.316 38.9645C36.5446 39.2324 37.4461 39.9379 38.4391 38.8992L41.3004 34.8816C41.712 34.3394 41.5748 33.451 40.9607 33.0459C40.3466 32.6409 39.5301 32.7716 39.125 33.3856L38.72 33.9605Z" fill="#FB7A32"/>
<path id="Vector_3" d="M44.7949 18.9354L30.4166 14.049C30.0769 13.9837 29.8025 13.9837 29.5281 14.049L15.1367 18.9354C14.9211 18.955 14 19.3796 14 20.2485V39.0429C14 39.5851 14.3397 40.062 14.8884 40.2711L29.5281 45.9218C29.7894 46.059 30.3447 45.9871 30.4819 45.9218L45.1215 40.2711C45.6638 40.0685 46.01 39.5917 46.01 39.0429V20.2485C46.01 19.8369 45.6507 19.1967 44.7949 18.9354ZM30.005 16.7078L40.7643 20.3203L30.005 24.4032L19.2457 20.3138L30.005 16.7078ZM16.6588 38.0892V22.2213L28.6462 26.7877V42.7208L16.6588 38.0892ZM43.3512 38.0892L31.3638 42.7208V26.8269L43.3512 22.2213V38.0892Z" fill="#FB7A32"/>
</g>
</g>
</svg>
