<svg width="84" height="54" viewBox="0 0 84 54" fill="none" xmlns="http://www.w3.org/2000/svg">
<g id="logo">
<g id="Vector">
<path d="M0.0261882 17.9651L9.63724 9.00873L19.2483 0.0523763L36.7944 0L34.4374 2.17362C33.1542 3.37827 30.0116 6.28516 27.4714 8.66828C24.9573 11.0514 20.1387 15.5296 10.7633 24.2502L10.7371 42.9748L29.7236 42.9486L30.6402 42.1368C31.1377 41.6916 33.4423 39.5441 35.7468 37.3705C38.0514 35.1969 41.063 32.3686 42.4248 31.0592C43.7866 29.7498 47.8982 25.8739 58.1377 16.2629H67.8273L67.8535 24.2502L55.7284 35.773C49.0766 42.1106 42.3725 48.5005 40.8535 49.9408C39.3346 51.4074 37.711 52.9001 36.4016 53.9738H0L0.0261882 17.9651Z" fill="#FB7A32"/>
<path d="M42.9486 4.05917C44.4675 2.59263 46.065 1.0999 46.484 0.733269L47.2696 0.0523763L83.8021 0.0261882L83.7759 36.0349L64.5538 53.9476L47.0078 54L49.3647 51.8264C50.6479 50.6217 53.7905 47.7148 56.3307 45.3317C58.8448 42.9486 63.6634 38.4704 73.0388 29.7498L73.065 11.0252L54.0786 11.0514L53.162 11.8632C52.6644 12.3084 50.3598 14.4559 48.0553 16.6295C45.7507 18.8031 42.7391 21.6576 41.3773 22.9408C40.0155 24.2502 35.904 28.1261 25.6644 37.7372H15.9748L15.9224 29.6974L28.0475 18.2008C34.7255 11.8894 41.4297 5.5257 42.9486 4.05917Z" fill="#FB7A32"/>
</g>
<g id="Mask group">
<mask id="mask0_116_1957" style="mask-type:alpha" maskUnits="userSpaceOnUse" x="0" y="0" width="84" height="54">
<g id="Vector_2">
<path d="M0.0261882 17.9651L9.63724 9.00873L19.2483 0.0523763L36.7944 0L34.4374 2.17362C33.1542 3.37827 30.0116 6.28516 27.4714 8.66828C24.9573 11.0514 20.1387 15.5296 10.7633 24.2502L10.7371 42.9748L29.7236 42.9486L30.6402 42.1368C31.1377 41.6916 33.4423 39.5441 35.7468 37.3705C38.0514 35.1969 41.063 32.3686 42.4248 31.0592C43.7866 29.7498 47.8982 25.8739 58.1377 16.2629H67.8273L67.8535 24.2502L55.7284 35.773C49.0766 42.1106 42.3725 48.5005 40.8535 49.9408C39.3346 51.4074 37.711 52.9001 36.4016 53.9738H0L0.0261882 17.9651Z" fill="#FF7F22"/>
<path d="M42.9486 4.05917C44.4675 2.59263 46.065 1.0999 46.484 0.733269L47.2696 0.0523763L83.8021 0.0261882L83.7759 36.0349L64.5538 53.9476L47.0078 54L49.3647 51.8264C50.6479 50.6217 53.7905 47.7148 56.3307 45.3317C58.8448 42.9486 63.6634 38.4704 73.0388 29.7498L73.065 11.0252L54.0786 11.0514L53.162 11.8632C52.6644 12.3084 50.3598 14.4559 48.0553 16.6295C45.7507 18.8031 42.7391 21.6576 41.3773 22.9408C40.0155 24.2502 35.904 28.1261 25.6644 37.7372H15.9748L15.9224 29.6974L28.0475 18.2008C34.7255 11.8894 41.4297 5.5257 42.9486 4.05917Z" fill="#FF7F22"/>
</g>
</mask>
<g mask="url(#mask0_116_1957)">
<path id="Vector 45" d="M40.2001 -2.22607H13.0953L-5.10547 10.868V57.4829H40.2001L70.1855 27.4975V14.4034H56.8295L27.8916 41.2463H13.0953V27.4975L23.4396 16.6294L40.2001 -2.22607Z" fill="white"/>
</g>
</g>
</g>
</svg>
