<svg width="160" height="80" viewBox="0 0 160 80" fill="none" xmlns="http://www.w3.org/2000/svg">
<g id="&#208;&#187;&#208;&#190;&#208;&#179;&#208;&#190;&#209;&#130;&#208;&#184;&#208;&#191; 1">
<rect id="Rectangle 335" width="160" height="80" rx="10" fill="#F6F6F6"/>
<g id="Group">
<path id="Vector" d="M94.1641 41.3293V34.7441H96.3677C96.3677 34.7441 96.3677 37.5792 96.3677 37.8112C96.3677 38.0303 96.3162 38.288 96.3162 38.288H96.4064L98.8162 34.7441H100.93V41.3293H98.726V38.2365C98.726 38.0174 98.7775 37.8112 98.7775 37.8112H98.6873L96.2775 41.3293H94.1641Z" fill="#562212"/>
<path id="Vector_2" d="M89.5903 34.5763C91.6909 34.5763 93.263 36.0583 93.263 38.0557C93.263 40.0274 91.6909 41.5094 89.5903 41.5094C87.5155 41.5094 85.9434 40.0274 85.9434 38.0557C85.9434 36.0583 87.5027 34.5763 89.5903 34.5763ZM89.5903 39.4604C90.3893 39.4604 90.9305 38.8418 90.9305 38.0557C90.9305 37.2567 90.4022 36.6253 89.5903 36.6253C88.8042 36.6253 88.2501 37.2439 88.2501 38.0557C88.2501 38.8289 88.8042 39.4604 89.5903 39.4604Z" fill="#562212"/>
<path id="Vector_3" d="M45.813 32.4756C47.8749 32.4756 49.3311 33.9576 49.3311 35.9679C49.3311 37.9396 47.8749 39.4216 45.813 39.4216C43.7769 39.4216 42.2949 37.9525 42.2949 35.9679C42.2949 33.9576 43.7769 32.4756 45.813 32.4756ZM45.813 38.1973C47.1403 38.1973 48.0424 37.2308 48.0424 35.955C48.0424 34.6535 47.1403 33.6741 45.813 33.6741C44.5114 33.6741 43.5965 34.6535 43.5965 35.955C43.5965 37.2308 44.5114 38.1973 45.813 38.1973Z" fill="#562212"/>
<path id="Vector_4" d="M78.6239 46.3676C78.6368 46.2387 78.6497 46.097 78.6497 45.9552C78.6497 43.9578 77.6187 42.4629 75.4537 42.4629C73.598 42.4629 72.2578 43.9449 72.2578 45.9552C72.2578 46.097 72.2707 46.2258 72.2836 46.3676C72.4382 48.0815 73.5336 49.4089 75.8274 49.4089C76.9357 49.4089 77.8893 49.0738 78.5594 48.5197L78.044 47.5789C77.5414 47.9527 76.7682 48.3135 75.8661 48.3135C74.4228 48.3135 73.7398 47.5274 73.6109 46.3805H78.6239V46.3676ZM75.5053 43.5712C76.6909 43.5712 77.3094 44.3444 77.4125 45.3495H73.6109C73.8042 44.3057 74.5259 43.5712 75.5053 43.5712Z" fill="#562212"/>
<path id="Vector_5" d="M84.3833 42.6562V45.3496H80.8523V42.6562H79.5508V49.2285H80.8523V46.3676H84.3833V49.2285H85.6849V42.6562H84.3833Z" fill="#562212"/>
<path id="Vector_6" d="M92.592 42.6562H86.5996V43.8161H88.945V49.2285H90.2466V43.8161H92.592V42.6562Z" fill="#562212"/>
<path id="Vector_7" d="M100.943 49.2285H99.6289V42.6562H100.943V49.2285Z" fill="#562212"/>
<path id="Vector_8" d="M53.121 35.7748V35.7233C53.121 35.7233 53.237 35.6846 53.353 35.5558C53.469 35.4269 55.8659 32.6562 55.8659 32.6562H54.3968L52.0772 35.3496H51.5488V32.6562H50.2344V39.2414H51.5488V36.3805H52.1416L54.6417 39.2414H56.2783C56.2783 39.2414 53.4818 36.0841 53.3659 35.9553C53.237 35.8135 53.121 35.7748 53.121 35.7748Z" fill="#562212"/>
<path id="Vector_9" d="M95.8266 44.6666C95.2081 44.6666 94.8086 44.7439 94.8086 44.7439V42.6562H93.4941V49.2414C93.4941 49.2414 94.5766 49.3445 95.6849 49.3445C97.7468 49.3445 98.4169 48.0945 98.4169 46.9347C98.4298 45.762 97.8241 44.6666 95.8266 44.6666ZM95.5947 48.2491C95.1823 48.2491 94.8215 48.2233 94.8215 48.2233V45.8522C94.8215 45.8522 95.105 45.7748 95.6205 45.7748C96.7158 45.7748 97.2055 46.2001 97.2055 46.9862C97.1798 47.7465 96.7545 48.2491 95.5947 48.2491Z" fill="#562212"/>
<path id="Vector_10" d="M40.1435 32.656L40.1048 33.4808H40.0146C39.6022 32.8622 38.7646 32.4756 38.1074 32.4756C36.1872 32.4756 35.0403 33.9576 35.0016 35.9679C34.9501 37.9396 36.1099 39.4216 38.03 39.4216C38.9063 39.4216 39.4605 39.1767 40.0017 38.5324H40.0919V39.1252C40.0919 40.4009 39.2027 40.9035 38.2105 40.9035C37.2955 40.9035 36.5738 40.5556 36.1486 40.2979L35.7233 41.3803C36.1357 41.5994 36.9218 42.0633 38.2233 42.0633C40.0662 42.0633 41.4193 40.968 41.4193 38.8545V32.656H40.1435ZM38.262 38.1973C36.9347 38.1973 36.2388 37.2308 36.2646 35.955C36.2903 34.6535 37.0378 33.6741 38.3651 33.6741C39.0996 33.6741 40.079 34.3442 40.079 35.5426V37.3597C39.6795 37.8751 39.0352 38.1973 38.262 38.1973Z" fill="#562212"/>
<path id="Vector_11" d="M61.4708 32.6564V37.4245C61.0842 37.9014 60.4915 38.1978 59.7569 38.1978C58.5584 38.1978 58.0043 37.2312 58.0301 35.9555V32.6436H56.7543V35.9555C56.7027 37.9271 57.5017 39.4091 59.4219 39.4091C60.2982 39.4091 60.8909 39.1514 61.3935 38.5199H61.4708V39.1127C61.4708 40.3885 60.5817 40.8911 59.5894 40.8911C58.6744 40.8911 57.9528 40.5431 57.5146 40.2854L57.0893 41.3679C57.5017 41.587 58.2878 42.0509 59.5894 42.0509C61.4322 42.0509 62.7853 40.9555 62.7853 38.8421V32.6436H61.4708V32.6564Z" fill="#562212"/>
<path id="Vector_12" d="M70.0923 32.6564C70.0923 32.6564 67.9273 35.6977 67.8629 35.7879C67.7985 35.8781 67.7727 35.9683 67.7727 35.9683H67.734C67.734 35.9683 67.7083 35.8781 67.6438 35.7879C67.5794 35.6977 65.2469 32.6564 65.2469 32.6564H64.0098V39.2416H65.3242V35.0405C65.3242 34.7441 65.2598 34.5766 65.2598 34.5766H65.3242L67.734 37.8112H67.7856L70.0279 34.5766H70.0923C70.0923 34.5766 70.0279 34.7441 70.0279 35.0276V39.2287H71.3423V32.6436H70.0923V32.6564Z" fill="#562212"/>
<path id="Vector_13" d="M83.2892 34.7571C83.2892 34.7571 81.4464 37.154 81.3691 37.2442C81.2789 37.3602 81.266 37.4118 81.266 37.4118H81.1758C81.1758 37.4118 81.1629 37.3473 81.0727 37.2442C80.9438 37.0767 79.0366 34.7571 79.0366 34.7571H77.2969V41.3422H79.4232V38.5845C79.4232 38.2881 79.3716 38.1076 79.3716 38.1076H79.4619L81.1758 40.0793H81.266L82.8511 38.1076H82.9413C82.9413 38.1076 82.8897 38.2881 82.8897 38.5845V41.3422H85.0161V34.7571H83.2892Z" fill="#562212"/>
<path id="Vector_14" d="M112.462 43.889V37.2136H107.191V43.889C107.191 46.2473 108.441 48.4122 110.478 49.5849L116.405 52.9999V46.9174L113.119 45.023C112.72 44.8039 112.462 44.3658 112.462 43.889Z" fill="#C59368"/>
<path id="Vector_15" d="M116.418 50.3843L122.346 46.9693C124.382 45.7966 125.632 43.6188 125.632 41.2734V28H116.418V33.2707H120.361V41.2734C120.361 41.7502 120.116 42.1755 119.704 42.4203L116.418 44.3147V50.3843Z" fill="#ED5338"/>
<path id="Vector_16" d="M116.417 28L107.203 37.214H116.417V28Z" fill="#562212"/>
</g>
</g>
</svg>
