<svg width="160" height="80" viewBox="0 0 160 80" fill="none" xmlns="http://www.w3.org/2000/svg">
<g id="&#208;&#187;&#208;&#190;&#208;&#179;&#209;&#130;&#209;&#130;&#208;&#184;&#208;&#191; 2">
<rect id="Rectangle 334" width="160" height="80" rx="10" fill="#F6F6F6"/>
<g id="Group 29">
<g id="Group">
<g id="Group_2">
<path id="Vector" d="M28.5 28C21.5876 28 16 33.5876 16 40.5C16 47.4124 21.5876 53 28.5 53C35.4124 53 41 47.4124 41 40.5C41 33.5876 35.4124 28 28.5 28ZM26.7719 45.7995L25.8502 48.5069C22.394 47.3548 20.0899 44.0714 20.0899 40.3848C20.0899 36.6982 22.394 33.4724 25.9078 32.2627L26.8295 34.97C24.5253 35.7189 23.0277 37.9078 23.0277 40.3272C22.9124 42.8618 24.4677 45.0507 26.7719 45.7995ZM31.0346 48.5645L30.1705 45.7995C32.5323 45.0507 34.0876 42.8618 34.0876 40.3848C34.0876 37.9078 32.5323 35.7765 30.2281 35.0277L31.1498 32.2627C34.6636 33.4147 37.0253 36.6982 37.0253 40.3848C37.0253 44.1866 34.606 47.47 31.0346 48.5645Z" fill="#00BEF0"/>
</g>
<path id="Vector_2" d="M142.959 42.7459L144.341 44.4164C142.901 45.9141 141.116 46.3173 139.676 46.3173C138.293 46.3173 137.314 46.0869 136.45 45.6837C134.606 44.762 133.685 42.9187 133.685 40.6722C133.685 37.2736 135.989 34.739 139.388 34.739C143.189 34.739 145.033 37.5616 144.745 41.2482H136.104C136.162 42.1699 136.68 43.0339 137.429 43.4948C138.063 43.898 138.812 44.0708 139.791 44.0708C140.885 44.0708 141.98 43.7252 142.959 42.7459ZM136.162 39.2321H142.268C142.095 37.9072 141 36.7551 139.272 36.7551C137.487 36.7551 136.392 38.0224 136.162 39.2321ZM78.1548 45.9717H81.2654L76.3691 40.269L81.2078 34.9118H78.1548L74.4682 39.1745H73.3737V34.9118H71.012V45.9141H73.3737V41.5362H74.4682L78.1548 45.9717ZM88.2931 36.9279C86.277 36.9279 84.9521 38.4832 84.9521 40.4418C84.9521 42.4003 86.277 43.9556 88.2931 43.9556C90.3092 43.9556 91.5765 42.4579 91.5765 40.4418C91.6341 38.5408 90.3668 36.9279 88.2931 36.9279ZM88.6963 34.6814C91.8069 34.6814 94.1111 37.1007 94.1111 40.4418C94.1111 43.7252 91.8645 46.2597 88.6963 46.2597C87.1986 46.2597 85.9889 45.7413 85.1249 44.8196V50.58H82.7055V34.9694H85.0673V36.2943C85.9889 35.1998 87.1986 34.6814 88.6963 34.6814ZM120.09 34.9694H110.24V37.1584H113.984V45.9717H116.404V37.1584H120.148V34.9694H120.09ZM69.3415 34.9694H59.4337V37.1584H63.1779V45.9717H65.5972V37.1584H69.3415V34.9694ZM56.5535 40.4994C56.5535 38.4256 55.1134 36.9279 53.0972 36.9279C51.1387 36.9279 49.641 38.4256 49.641 40.4994C49.641 42.5731 51.0811 44.0708 53.0972 44.0708C55.0558 44.0708 56.5535 42.5731 56.5535 40.4994ZM47.1641 40.4994C47.1641 37.216 49.6986 34.739 53.0972 34.739C56.4383 34.739 59.0304 37.216 59.0304 40.4994C59.0304 43.7828 56.4959 46.3173 53.0972 46.3173C49.7562 46.2597 47.1641 43.7828 47.1641 40.4994ZM131.784 34.9694V45.9717H129.422V38.8865L123.662 45.9717H121.761V34.9694H124.123V42.0547L129.883 34.9694H131.784ZM108.57 45.9717H106.208V34.9694H108.57V45.9717ZM102.464 42.2275C102.464 41.2482 101.772 40.557 100.851 40.557H98.4313V43.9556H100.851C101.772 43.9556 102.464 43.2067 102.464 42.2275ZM104.825 42.2275C104.825 44.4164 103.212 45.9717 100.908 45.9717H96.0696V34.9694H98.4313V38.5408H101.139C103.443 38.5408 104.825 40.0385 104.825 42.2275Z" fill="black"/>
</g>
</g>
</g>
</svg>
