<svg width="60" height="60" viewBox="0 0 60 60" fill="none" xmlns="http://www.w3.org/2000/svg">
<rect opacity="0.15" width="60" height="60" rx="10" fill="white"/>
<path d="M22.9687 28.9062C23.616 28.9062 24.1406 28.3816 24.1406 27.7344C24.1406 27.0872 23.616 26.5625 22.9687 26.5625C22.3215 26.5625 21.7969 27.0872 21.7969 27.7344C21.7969 28.3816 22.3215 28.9062 22.9687 28.9062Z" fill="white"/>
<path d="M44.9739 31.5978C44.5189 31.1377 43.7769 31.1335 43.3166 31.5887L37.0358 37.8004L35.5161 36.2807C35.0586 35.8231 34.3165 35.8231 33.8589 36.2807C33.4012 36.7384 33.4012 37.4803 33.8589 37.938L36.2026 40.2817C36.4314 40.5106 36.7313 40.625 37.0313 40.625C37.3292 40.625 37.627 40.5122 37.8553 40.2863L44.9647 33.2551C45.425 32.8 45.4289 32.058 44.9739 31.5978Z" fill="white"/>
<path d="M44.1406 24.2187H35.8594V15.8594C35.8594 12.6285 33.2308 10 30 10H15.8594C12.6285 10 10 12.6285 10 15.8594V27.7344C10 30.564 12.0164 32.9316 14.6875 33.476V37.1094C14.6875 37.5815 14.9709 38.0076 15.4064 38.1901C15.8453 38.3741 16.3471 38.2734 16.6811 37.9448L21.1048 33.5937H26.4844V39.4531C26.4844 42.684 29.1129 45.3125 32.3437 45.3125H33.5156V48.8281C33.5156 49.3021 33.8011 49.7294 34.2391 49.9108C34.6769 50.0922 35.181 49.9919 35.5162 49.6567L39.8604 45.3125H44.1406C47.3715 45.3125 50 42.684 50 39.4531V30.0781C50 26.8473 47.3715 24.2187 44.1406 24.2187ZM26.4844 30.0781V31.25H20.625C20.3175 31.25 20.0224 31.3708 19.8032 31.5864L17.0312 34.313V32.4219C17.0312 31.7747 16.5066 31.25 15.8594 31.25C13.9209 31.25 12.3437 29.6729 12.3437 27.7344V15.8594C12.3437 13.9209 13.9209 12.3437 15.8594 12.3437H30C31.9385 12.3437 33.5156 13.9209 33.5156 15.8594V24.2187H32.3437C29.1129 24.2187 26.4844 26.8473 26.4844 30.0781ZM47.6562 39.4531C47.6562 41.3916 46.0791 42.9687 44.1406 42.9687H39.375C39.0641 42.9687 38.7661 43.0923 38.5464 43.312L35.8594 45.999V44.1406C35.8594 43.4934 35.3347 42.9687 34.6875 42.9687H32.3437C30.4052 42.9687 28.8281 41.3916 28.8281 39.4531V30.0781C28.8281 28.1396 30.4052 26.5625 32.3437 26.5625H44.1406C46.0791 26.5625 47.6562 28.1396 47.6562 30.0781V39.4531Z" fill="white"/>
<path d="M22.9687 14.6875C21.0302 14.6875 19.4531 16.2646 19.4531 18.2031C19.4531 18.8503 19.9778 19.375 20.625 19.375C21.2722 19.375 21.7969 18.8503 21.7969 18.2031C21.7969 17.557 22.3226 17.0312 22.9687 17.0312C23.6149 17.0312 24.1406 17.557 24.1406 18.2031C24.1406 18.5078 23.7952 19.1059 23.2748 19.3129C22.377 19.6699 21.7969 20.5249 21.7969 21.491V23.0469C21.7969 23.6941 22.3216 24.2187 22.9687 24.2187C23.6159 24.2187 24.1328 23.6941 24.1328 23.0469L24.1332 21.4907C25.4691 20.9592 26.4844 19.5459 26.4844 18.2031C26.4844 16.2646 24.9073 14.6875 22.9687 14.6875Z" fill="white"/>
</svg>
