<svg width="60" height="60" viewBox="0 0 60 60" fill="none" xmlns="http://www.w3.org/2000/svg">
<rect opacity="0.15" width="60" height="60" rx="10" fill="white"/>
<path d="M46.8613 27.3089C45.7807 26.2284 44.5244 25.4285 43.1838 24.9079V10H11V42.1837H31.4903C31.5701 42.2687 31.6509 42.3532 31.7339 42.4362L39.2976 50L46.8613 42.4362C48.9466 40.3509 49.9893 37.6118 49.9893 34.8726C49.9892 32.1334 48.9465 29.3942 46.8613 27.3089ZM24.7453 12.3438H29.4384V17.9691L27.0918 16.9262L24.7452 17.9691L24.7453 12.3438ZM13.3438 39.84V12.3438H22.4016V21.5756L27.0919 19.491L31.7821 21.5756V12.3438H40.8399V24.2919C37.6127 23.8255 34.2116 24.8312 31.7337 27.309C29.6484 29.3943 28.6058 32.1334 28.6058 34.8727C28.6058 36.5814 29.0116 38.29 29.8231 39.84H13.3438ZM45.204 40.779L39.2976 46.6854L33.3911 40.779C31.7627 39.1505 30.9484 37.0116 30.9484 34.8726C30.9484 32.7335 31.7627 30.5946 33.3911 28.9661C36.648 25.7092 41.9472 25.7092 45.204 28.9661C46.8324 30.5945 47.6466 32.7335 47.6466 34.8726C47.6466 37.0116 46.8324 39.1506 45.204 40.779Z" fill="white"/>
<path d="M18.0367 35.1489H15.6914V37.4927H18.0367V35.1489Z" fill="white"/>
<path d="M22.7281 35.1489H20.3828V37.4927H22.7281V35.1489Z" fill="white"/>
<path d="M39.298 28.8636C35.9845 28.8636 33.2888 31.5593 33.2888 34.8728C33.2888 38.1862 35.9846 40.882 39.298 40.882C42.6116 40.882 45.3073 38.1862 45.3073 34.8728C45.3073 31.5593 42.6115 28.8636 39.298 28.8636ZM39.298 38.5383C37.2768 38.5383 35.6326 36.8939 35.6326 34.8729C35.6326 32.8517 37.2769 31.2074 39.298 31.2074C41.3192 31.2074 42.9635 32.8518 42.9635 34.8729C42.9635 36.8939 41.3191 38.5383 39.298 38.5383Z" fill="white"/>
</svg>
