<svg width="60" height="60" viewBox="0 0 60 60" fill="none" xmlns="http://www.w3.org/2000/svg">
<rect opacity="0.15" width="60" height="60" rx="10" fill="white"/>
<path d="M45.3125 10H21.8759C21.8753 10 21.8747 10 21.8741 10H14.6875C12.1027 10 10 12.1027 10 14.6875V16.875C10 19.4598 12.1027 21.5625 14.6875 21.5625H45.3125C47.8973 21.5625 50 19.4598 50 16.875V14.6875C50 12.1027 47.8973 10 45.3125 10ZM22.2879 18.4375L16.9754 13.125H21.2277L26.5402 18.4375H22.2879ZM25.6473 13.125H29.2969V16.7746L25.6473 13.125ZM13.125 16.875V14.6875C13.125 14.4025 13.2028 14.136 13.3368 13.9056L17.8683 18.4375H14.6875C13.826 18.4375 13.125 17.7365 13.125 16.875ZM46.875 16.875C46.875 17.7365 46.174 18.4375 45.3125 18.4375H32.4219V13.125H45.3125C46.174 13.125 46.875 13.826 46.875 14.6875V16.875ZM45.3125 38.4375H14.6875C12.1027 38.4375 10 40.5402 10 43.125V45.3125C10 47.8973 12.1027 50 14.6875 50H37.5C38.363 50 39.0625 49.3005 39.0625 48.4375C39.0625 47.5745 38.363 46.875 37.5 46.875H35.9375V41.5625H45.3125C46.174 41.5625 46.875 42.2635 46.875 43.125V45.3125C46.875 46.174 46.174 46.875 45.3125 46.875C44.4495 46.875 43.75 47.5745 43.75 48.4375C43.75 49.3005 44.4495 50 45.3125 50C47.8973 50 50 47.8973 50 45.3125V43.125C50 40.5402 47.8973 38.4375 45.3125 38.4375ZM22.1204 46.8442L16.8387 41.5625H21.2082L26.5207 46.875H22.1481C22.1387 46.8649 22.1304 46.8542 22.1204 46.8442ZM13.125 45.3125V43.125C13.125 42.876 13.1851 42.6413 13.2889 42.4323L17.7316 46.875H14.6875C13.826 46.875 13.125 46.174 13.125 45.3125ZM30.9402 46.875L25.6277 41.5625H29.9094L32.8125 44.4656V46.875H30.9402ZM45.3125 24.2188H14.6875C12.1027 24.2188 10 26.3214 10 28.9062V31.0938C10 33.6786 12.1027 35.7812 14.6875 35.7812H45.3125C47.8973 35.7812 50 33.6786 50 31.0938V28.9062C50 26.3214 47.8973 24.2188 45.3125 24.2188ZM21.8665 32.352L16.8582 27.3438H21.1105L26.423 32.6562H22.1017C22.037 32.5482 21.9598 32.4454 21.8665 32.352ZM30.7336 32.5473L25.5301 27.3438H29.8996L35.2121 32.6562H30.8322C30.8011 32.619 30.7687 32.5824 30.7336 32.5473ZM38.125 31.1496L34.3192 27.3438H38.125V31.1496ZM13.125 31.0938V28.9062C13.125 28.652 13.1873 28.4128 13.2953 28.2004L17.7512 32.6562H14.6875C13.826 32.6562 13.125 31.9553 13.125 31.0938ZM46.875 31.0938C46.875 31.9553 46.174 32.6562 45.3125 32.6562H41.25V27.3438H45.3125C46.174 27.3438 46.875 28.0447 46.875 28.9062V31.0938Z" fill="white"/>
</svg>
