<svg width="60" height="60" viewBox="0 0 60 60" fill="none" xmlns="http://www.w3.org/2000/svg">
<rect opacity="0.15" width="60" height="60" rx="10" fill="white"/>
<path d="M39.834 10H19.9668C17.228 10 15 12.228 15 14.9668V45.0332C15 47.772 17.228 50 19.9668 50H39.8339C42.5726 50 44.8006 47.772 44.8006 45.0332V14.9668C44.8008 12.228 42.5728 10 39.834 10ZM19.9668 12.6847H39.8339C41.0922 12.6847 42.1159 13.7084 42.1159 14.9668V21.5482H17.6847V14.9668C17.6847 13.7084 18.7084 12.6847 19.9668 12.6847ZM39.834 47.3154H19.9668C18.7084 47.3154 17.6847 46.2917 17.6847 45.0334V24.2329H42.1159V45.0332C42.1161 46.2917 41.0923 47.3154 39.834 47.3154Z" fill="white"/>
<path d="M27.1596 36.2749H21.9986C21.2573 36.2749 20.6562 36.876 20.6562 37.6173V42.7782C20.6562 43.5195 21.2573 44.1206 21.9986 44.1206H27.1596C27.9009 44.1206 28.5019 43.5195 28.5019 42.7782V37.6173C28.5019 36.876 27.9009 36.2749 27.1596 36.2749ZM25.8171 41.4359H23.341V38.9596H25.8172L25.8171 41.4359Z" fill="white"/>
<path d="M37.8041 36.2749H32.6431C31.9019 36.2749 31.3008 36.876 31.3008 37.6173V42.7782C31.3008 43.5195 31.9019 44.1206 32.6431 44.1206H37.8041C38.5454 44.1206 39.1465 43.5195 39.1465 42.7782V37.6173C39.1465 36.876 38.5455 36.2749 37.8041 36.2749ZM36.4617 41.4359H33.9856V38.9596H36.4619V41.4359H36.4617Z" fill="white"/>
<path d="M27.1596 26.2332H21.9986C21.2573 26.2332 20.6562 26.8342 20.6562 27.5755V32.7365C20.6562 33.4778 21.2573 34.0788 21.9986 34.0788H27.1596C27.9009 34.0788 28.5019 33.4778 28.5019 32.7365V27.5755C28.5019 26.8342 27.9009 26.2332 27.1596 26.2332ZM25.8171 31.3941H23.341V28.9179H25.8172L25.8171 31.3941Z" fill="white"/>
<path d="M37.8041 26.2332H32.6431C31.9019 26.2332 31.3008 26.8342 31.3008 27.5755V32.7365C31.3008 33.4778 31.9019 34.0788 32.6431 34.0788H37.8041C38.5454 34.0788 39.1465 33.4778 39.1465 32.7365V27.5755C39.1465 26.8342 38.5455 26.2332 37.8041 26.2332ZM36.4617 31.3941H33.9856V28.9179H36.4619V31.3941H36.4617Z" fill="white"/>
</svg>
